<svg xmlns="http://www.w3.org/2000/svg" version="1.1" xmlns:xlink="http://www.w3.org/1999/xlink" xmlns:svgjs="http://svgjs.com/svgjs" width="512" height="512" x="0" y="0" viewBox="0 0 60 60" style="enable-background:new 0 0 512 512" xml:space="preserve" class=""><g><path fill="#4ab591" d="M29.972 41.469a.5.5 0 0 1-.286-.91l.72-.5-2.045 1.18a.5.5 0 0 1-.532-.845l1.7-1.164-2.781 1.605a.5.5 0 0 1-.544-.837l6.814-4.961-8.366 4.83a.5.5 0 0 1-.526-.849l3.089-2.05L23.53 39.1a.5.5 0 0 1-.53-.853l4.907-3.291-5.48 3.164a.5.5 0 0 1-.524-.851l2.724-1.778-2.99 1.726a.5.5 0 0 1-.534-.845l7.693-5.3-8.126 4.693a.5.5 0 0 1-.53-.847l6.365-4.3-6.49 3.747a.5.5 0 0 1-.534-.844L26.63 28.6l-7.106 4.1a.5.5 0 0 1-.524-.848l1.793-1.17-1.455.839a.5.5 0 0 1-.533-.844l5.4-3.719-4.9 2.832a.5.5 0 0 1-.525-.851l.534-.35a.508.508 0 0 1-.54-.219.5.5 0 0 1 .137-.679l2.911-2.019-1.912 1.1a.5.5 0 0 1-.538-.841L20.7 25a.5.5 0 0 1-.524-.843l2.259-1.827a.491.491 0 0 1-.226-.2.5.5 0 0 1 .183-.683l4.027-2.325a.5.5 0 0 1 .564.821l-1.214.983 4.022-2.326a.5.5 0 0 1 .538.841l-1.308.921 2.729-1.575a.5.5 0 0 1 .535.844l-2.919 2.025 4.14-2.389a.5.5 0 0 1 .524.85l-.236.155.877-.505a.5.5 0 0 1 .533.844l-5.4 3.715 6.346-3.664a.5.5 0 0 1 .524.852l-1.8 1.173 2.2-1.272a.5.5 0 0 1 .533.845l-7.146 4.917 7.805-4.506a.5.5 0 0 1 .53.847l-6.369 4.3 6.728-3.883a.5.5 0 0 1 .533.844l-7.687 5.3 7.934-4.579a.5.5 0 0 1 .523.852l-2.73 1.782 2.588-1.494a.5.5 0 0 1 .529.847l-4.905 3.288 4.672-2.7a.5.5 0 0 1 .527.85l-3.092 2.051 2.668-1.54a.5.5 0 0 1 .544.837l-6.816 4.961 6.052-3.493a.5.5 0 0 1 .532.846l-1.706 1.164.726-.418a.5.5 0 0 1 .536.843l-1.132.789a.5.5 0 0 1 .363.889l-2.072 1.636a.491.491 0 0 1 .237.21.5.5 0 0 1-.183.683l-4.438 2.561a.5.5 0 0 1-.559-.825l.981-.774-3.558 2.055a.5.5 0 0 1-.25.069Z" data-original="#4ab591"></path><path fill="#5acca6" d="M31.947 3.725a.5.5 0 0 1-.25-.933L35.028.869a.5.5 0 1 1 .5.865L32.2 3.657a.5.5 0 0 1-.253.068Z" data-original="#5acca6"></path><path fill="#5acca6" d="M28.587 25.1a.5.5 0 0 1-.282-.912l1.753-1.2-2.84 1.64a.5.5 0 0 1-.533-.845l6.579-4.519-7.222 4.17a.5.5 0 0 1-.536-.843L34.958 16l-10.351 5.974a.5.5 0 0 1-.524-.851l6.026-3.959-6.527 3.769a.5.5 0 0 1-.532-.845l10.372-7.1-11.264 6.5a.5.5 0 0 1-.519-.853l3.281-2.1-3.613 2.086a.5.5 0 0 1-.519-.854l2.584-1.643-2.886 1.665a.5.5 0 0 1-.527-.849l8.79-5.848-9.473 5.469a.5.5 0 0 1-.525-.85l7.717-5.095-8.318 4.8a.5.5 0 0 1-.534-.845L27.5 7.76l-10.688 6.173a.5.5 0 0 1-.534-.845l2.557-1.762-2.679 1.547a.5.5 0 0 1-.535-.844l2.734-1.9-2.689 1.552a.5.5 0 0 1-.553-.831l5.329-4.045-5.137 2.969a.5.5 0 0 1-.548-.834l3.488-2.589L15.388 8a.5.5 0 0 1-.546-.836l1.429-1.049-.429.247a.5.5 0 0 1-.585-.8l2.031-1.834a.5.5 0 0 1-.158-.928L20.461.877a.5.5 0 0 1 .585.8l-1.608 1.45L23.648.7a.5.5 0 0 1 .546.836l-1.429 1.05 2.5-1.445a.5.5 0 0 1 .547.834l-3.483 2.589 4.493-2.593a.5.5 0 0 1 .553.831l-5.332 4.047 6.231-3.6a.5.5 0 0 1 .536.844l-2.725 1.89 3.129-1.803a.5.5 0 0 1 .533.844l-2.559 1.763L37.829.644a.5.5 0 0 1 .534.844L28.476 8.3l11.949-6.9a.5.5 0 0 1 .525.85l-7.719 5.1 8.652-5a.5.5 0 0 1 .527.849l-8.794 5.858L43.075 3.6a.5.5 0 0 1 .519.854L41.015 6.09 43.7 4.539a.5.5 0 0 1 .52.854l-3.265 2.086 3.232-1.865a.5.5 0 0 1 .532.845l-10.373 7.1L44.64 7.62a.5.5 0 0 1 .524.851l-6.029 3.961 5.494-3.172a.5.5 0 0 1 .536.843l-9.452 6.587 8.116-4.685a.5.5 0 0 1 .533.845l-6.579 4.519 3-1.732a.5.5 0 0 1 .532.844l-3.23 2.219a.5.5 0 0 1 .185.884l-2.962 2.255a.491.491 0 0 1 .1.129.5.5 0 0 1-.183.683l-4.124 2.38a.5.5 0 0 1-.552-.83l.851-.648-2.563 1.477a.5.5 0 0 1-.25.07ZM8.823 45.466a.5.5 0 0 1-.286-.91l1.7-1.186-3.097 1.786a.5.5 0 0 1-.537-.842l8.538-6-10.215 5.9a.5.5 0 0 1-.531-.846l8.817-6.007L3.435 43a.5.5 0 0 1-.523-.852l5.665-3.686-6 3.467a.5.5 0 0 1-.523-.852l6.575-4.287L1.9 40.676a.5.5 0 0 1-.528-.849l8.57-5.717-8.537 4.929a.5.5 0 0 1-.519-.853l2.435-1.557L1.3 37.8a.5.5 0 0 1-.531-.846L9.638 30.9l-8.029 4.637a.5.5 0 0 1-.528-.849L7.048 30.7l-4.222 2.433a.5.5 0 0 1-.531-.846l5.075-3.455-2.244 1.295a.5.5 0 0 1-.536-.843l3.4-2.374-3.863 2.23a.5.5 0 0 1-.527-.849l.266-.178-.479.277a.5.5 0 0 1-.529-.848l.6-.4-.75.432a.5.5 0 0 1-.544-.837l4.855-3.523-5.109 2.948a.5.5 0 0 1-.545-.836l4.706-3.442-4.653 2.686a.5.5 0 0 1-.535-.842l1.848-1.288-1.446.835a.5.5 0 0 1-.564-.821l4.465-3.618-3.553 2.051a.5.5 0 0 1-.6-.792l2.4-2.315a.505.505 0 0 1-.55-.236.5.5 0 0 1 .182-.683L6.39 14.94a.5.5 0 0 1 .6.792l-2.338 2.257 5.524-3.189a.5.5 0 0 1 .564.821L6.275 19.24l6.225-3.594a.5.5 0 0 1 .535.843l-1.845 1.284 2.4-1.386a.5.5 0 0 1 .545.836l-4.7 3.441 5.389-3.111a.5.5 0 0 1 .544.837l-4.858 3.525 5.511-3.182a.5.5 0 0 1 .529.848l-.6.4.85-.481a.5.5 0 0 1 .527.849l-.261.175.487-.282a.5.5 0 0 1 .536.843l-3.4 2.375 3.865-2.231a.5.5 0 0 1 .531.845L14 25.527l5.622-3.245a.5.5 0 0 1 .528.849l-5.959 3.987 6.52-3.764a.5.5 0 0 1 .531.846l-8.875 6.051 9.675-5.585a.5.5 0 0 1 .519.854l-2.426 1.55 2.741-1.582a.5.5 0 0 1 .527.849l-8.581 5.722 9.283-5.36a.5.5 0 0 1 .524.852l-6.572 4.284 6.285-3.628a.5.5 0 0 1 .522.852L19.2 32.744l5.146-2.97a.5.5 0 0 1 .531.846l-8.813 6 8.285-4.783a.5.5 0 0 1 .537.842l-8.541 6.005 3.421-1.975a.5.5 0 0 1 .536.843l-3.439 2.4a.486.486 0 0 1 .256.218.5.5 0 0 1-.182.682L9.073 45.4a.5.5 0 0 1-.25.066ZM38.06 59.416a.5.5 0 0 1-.329-.877l2.762-2.4-5.107 2.948a.5.5 0 0 1-.551-.832l3.349-2.528-4.527 2.613a.5.5 0 0 1-.553-.829l5.231-4.011-6.248 3.6a.5.5 0 0 1-.532-.845l1.533-1.046-1.841 1.062a.5.5 0 0 1-.531-.846l1.5-1.019-1.805 1.041a.5.5 0 1 1-.5-.865l13.686-7.9a.5.5 0 0 1 .531.846l-1.508 1.024 1.485-.858a.5.5 0 0 1 .533.846l-1.527 1.041 1.363-.786a.5.5 0 0 1 .553.829L39.8 53.638l4.914-2.838a.5.5 0 0 1 .551.832l-3.347 2.526 2.555-1.474a.5.5 0 0 1 .578.809L42.287 55.9l.916-.528a.5.5 0 1 1 .5.865l-5.393 3.112a.494.494 0 0 1-.25.067Z" data-original="#5acca6"></path><path fill="#5acca6" d="M23.474 59.429a.5.5 0 0 1-.278-.916l6.436-4.284-8.546 4.934a.5.5 0 0 1-.52-.853l2.811-1.8-3.7 2.135a.5.5 0 0 1-.532-.844L29.7 50.573l-11.843 6.839a.5.5 0 0 1-.524-.85l7.388-4.848-7.9 4.558a.5.5 0 0 1-.526-.849l8.317-5.508-8.6 4.968a.5.5 0 0 1-.522-.853l5.376-3.482-5.3 3.057a.5.5 0 0 1-.524-.85l6.8-4.472-6.5 3.755a.5.5 0 0 1-.521-.853l3.141-2.022-2.575 1.486a.5.5 0 0 1-.533-.844l8.627-5.927-7.381 4.257a.5.5 0 0 1-.534-.845l6.826-4.7-3.32 1.92a.5.5 0 0 1-.529-.848l2.932-1.973a.506.506 0 0 1-.238-.173.5.5 0 0 1 .062-.663l4.933-4.606a.5.5 0 0 1 .221-.6l1.161-.67a.5.5 0 0 1 .591.8L25.183 38.6l6.279-3.625a.5.5 0 0 1 .529.847l-.834.561 1.664-.96a.5.5 0 0 1 .533.845l-6.821 4.694 7.488-4.322a.5.5 0 0 1 .533.844l-8.634 5.928 9.42-5.438a.5.5 0 0 1 .52.853l-3.119 2.008 3.459-1.994a.5.5 0 0 1 .525.85l-6.8 4.476 7.348-4.241a.5.5 0 0 1 .521.852L32.4 44.266l5.827-3.366a.5.5 0 0 1 .526.85l-8.31 5.5 8.957-5.162a.5.5 0 0 1 .524.85l-7.394 4.848 7.954-4.592a.5.5 0 0 1 .533.845l-10.56 7.231 11.463-6.619a.5.5 0 0 1 .519.854l-2.82 1.8 3.119-1.8a.5.5 0 0 1 .528.848l-13.607 9.06a.5.5 0 0 1-.2.64l-5.73 3.308a.5.5 0 0 1-.255.068ZM51.229 45.427a.5.5 0 0 1-.323-.882l3.405-2.885-5.606 3.24a.5.5 0 0 1-.539-.84l1.742-1.236-2.528 1.456a.5.5 0 0 1-.536-.842l2.209-1.545-2.778 1.6a.5.5 0 0 1-.534-.844l2.226-1.537-2.613 1.508a.5.5 0 0 1-.544-.837l4.991-3.64-5.669 3.272a.5.5 0 0 1-.532-.845l2.3-1.58-2.67 1.541a.5.5 0 0 1-.548-.833l5.723-4.267-6.522 3.769a.5.5 0 0 1-.531-.846l2.71-1.843-3.095 1.789a.5.5 0 0 1-.53-.847l5.924-4.012-6.51 3.759a.5.5 0 0 1-.533-.845l8.567-5.865-9.361 5.4a.5.5 0 0 1-.531-.846l9.474-6.454-10.31 5.952a.5.5 0 0 1-.516-.856l.117-.074-.344.2a.5.5 0 0 1-.53-.846l10.2-6.915-10.426 6.018a.5.5 0 0 1-.532-.845l10.37-7.1-9.842 5.682a.5.5 0 0 1-.53-.847l8.046-5.443-7.52 4.34a.5.5 0 0 1-.524-.85l3.894-2.56a.5.5 0 0 1-.462-.88l3.415-2.317a.5.5 0 0 1-.18-.877l3.482-2.735a.63.63 0 0 1-.075-.1.5.5 0 0 1 .183-.683L48.77 14.9a.5.5 0 0 1 .558.827l-1.4 1.1 3.783-2.183a.5.5 0 0 1 .531.846l-1.75 1.187L53.4 15a.5.5 0 0 1 .524.851l-3.81 2.5 4.715-2.721a.5.5 0 0 1 .53.846l-8.045 5.444 8.986-5.185a.5.5 0 0 1 .532.846l-10.364 7.093 11.089-6.4a.5.5 0 0 1 .53.847l-10.2 6.918 10.467-6.042a.5.5 0 0 1 .516.856l-.207.13a.5.5 0 0 1 .473.875l-9.477 6.456 9-5.2a.5.5 0 0 1 .532.845l-8.564 5.864 7.328-4.23a.5.5 0 0 1 .53.846l-5.929 4.015 2.734-1.578a.5.5 0 0 1 .531.846l-2.7 1.838 2.184-1.26a.5.5 0 0 1 .549.833L50.131 35.4l6.511-3.758a.5.5 0 0 1 .532.844l-2.313 1.585 2.55-1.471a.5.5 0 0 1 .545.837l-4.99 3.639 5.218-3.011a.5.5 0 0 1 .534.843L56.5 36.441l2.049-1.182a.5.5 0 0 1 .536.843l-2.206 1.543 1.835-1.06a.5.5 0 0 1 .539.841l-1.746 1.234 1.118-.645a.5.5 0 0 1 .573.814l-3.406 2.887 1.934-1.116a.5.5 0 0 1 .5.865l-6.747 3.894a.493.493 0 0 1-.25.068Z" data-original="#5acca6"></path><path fill="#69e6c3" d="M29.847 36.462a.5.5 0 0 1-.341-.865l2.9-2.707-4.906 2.836a.5.5 0 0 1-.564-.822l3.523-2.845-4.449 2.568a.5.5 0 0 1-.543-.838l1.712-1.24-1.937 1.118a.5.5 0 0 1-.541-.84l1.283-.915-1.27.733a.5.5 0 0 1-.563-.824l3.749-3-3.6 2.079a.5.5 0 0 1-.566-.82l2.742-2.227-2.024 1.168a.5.5 0 0 1-.6-.788L25.7 26.4a.531.531 0 0 1-.457-.25.5.5 0 0 1 .183-.683l2.934-1.694a.5.5 0 0 1 .6.787l-1.692 1.686 4.158-2.4a.5.5 0 0 1 .565.82l-2.739 2.226 3.877-2.239a.5.5 0 0 1 .562.824l-3.748 2.995 4.491-2.592a.5.5 0 0 1 .541.84l-1.283.915 1.365-.787a.5.5 0 0 1 .543.838l-1.71 1.234 1.612-.931a.5.5 0 0 1 .564.822l-3.524 2.847 3.164-1.827a.5.5 0 0 1 .591.8l-2.9 2.705 1.6-.926a.5.5 0 1 1 .5.865L30.1 36.4a.5.5 0 0 1-.253.062Z" data-original="#69e6c3"></path><path fill="#262626" d="M39.138 37.08c3.226 2.786 5.683 6.862 9.965 8.073 9.968 1.631 13.988-8.79 6.489-15.154 2.343-3.195 5.48-5.5 3.387-10.313C53.584 9.5 44.3 16.6 39.14 22.887a11.658 11.658 0 0 0-1.848-1.874C44.6 15.9 50.107 4.578 39.516.8c-4.277-1.428-6.877 1.709-9.657 3.8C20.45-6.97 5.063 8.533 22.728 21.173a12.006 12.006 0 0 0-1.568 1.556C15.959 15.274 4.648 9.941.831 20.609-.6 24.744 2.342 27.4 4.549 30.221c-10.681 8.258 2.141 25.452 16.276 6.845a11.559 11.559 0 0 0 1.82 1.879c-16.862 12.211-3.469 27.824 7.332 16.567 10.507 11.417 24.5-4.384 7.313-16.576a11.586 11.586 0 0 0 1.848-1.856Zm4.821-17.426C53.548 8.906 63.79 20.905 54.41 30.285c3.6 3.563 6.367 9.231.81 12.992-8.453 4.709-13.561-6.614-19.32-10.837a6.163 6.163 0 0 0 .052-4.9ZM34.791 32.6c-2.663 4.585-10.6 2.821-10.291-2.684.132-8.916 14.3-4.968 10.291 2.684Zm3.489-8.864q-1.414 1.392-2.827 2.786a6.514 6.514 0 0 0-1.953-2.066c.849-.826 1.843-1.71 2.9-2.648a10.86 10.86 0 0 1 1.88 1.927ZM16.258 11.874C13.514 5.81 19.821-2.288 27.687 3.628c.918.412 1.6 2.59 2.738 1.763C34.959.807 43.708.268 44.355 8.294c-.2 7.061-7.8 10.581-11.731 15.672a6.287 6.287 0 0 0-5.109 0c-3.631-4.103-8.28-7.493-11.257-12.092Zm7.152 9.906c1.118.99 2.167 1.917 3.05 2.778a6.8 6.8 0 0 0-1.86 1.951c-.871-.888-1.811-1.949-2.816-3.083a10.3 10.3 0 0 1 1.626-1.646ZM16.276 40.2c-8.071 10.317-19.542-.3-10.868-9.786a.676.676 0 0 0 .04-.92C-1.691 25.03 2.3 13.919 10.663 15.861c5.5 2.334 8.863 7.954 13.379 11.726a6.539 6.539 0 0 0-.019 4.975Zm5.408-3.977 2.8-2.759a6.576 6.576 0 0 0 1.95 2.048c-.843.82-1.833 1.7-2.889 2.635a10.944 10.944 0 0 1-1.861-1.928ZM30.005 55.5a.724.724 0 0 1 .194-.058.491.491 0 0 0-.194.058Zm14.151-6.28c2.219 8.505-8.573 10.555-13.693 5.378a.723.723 0 0 0-.947-.034c-4.287 6.166-14.537 4.111-13.851-4.021 1.371-6.329 7.945-9.646 11.782-14.478a6.3 6.3 0 0 0 5.108-.053c3.737 4.483 9.26 7.751 11.601 13.208ZM33.482 35.482a6.755 6.755 0 0 0 1.929-2.076l2.9 2.856A10.839 10.839 0 0 1 36.46 38.2c-1.092-.968-2.114-1.875-2.978-2.718Z" data-original="#262626" class=""></path></g></svg>